<svg width="512" height="512" id="hexatar-preview" version="1.1" xmlns="http://www.w3.org/2000/svg" xmlns:xlink="http://www.w3.org/1999/xlink" x="0px" y="0px" viewBox="0 0 512 512" style="enable-background:new 0 0 512 512;" xml:space="preserve">
    <g id="hexatar-background"><g class="hexatar-base">
		<rect class="col-obj" x="-0.003" y="0.002" style="fill: rgb(208, 219, 127);" width="512" height="512"></rect>
		<path class="light-obj" style="opacity: 0.9; fill: rgb(223, 230, 167);" d="M281.14,0.239h-39.041l19.523,249.409L281.14,0.239z M0.236,235.926 v27.461l261.371-13.732L0.236,235.926z M511.76,429.885l-250.13-180.221l250.13,232.994V429.885z M0.236,6.17v55.146 l261.381,188.336L0.236,6.17z M0.236,437.998v55.147l261.376-243.476L0.236,437.998z M261.631,249.664L261.631,249.664 L261.631,249.664L261.631,249.664z M158.761,0.239l102.856,249.409L110.949,0.239H58.828l202.793,249.416L200.614,0.239H158.761z M511.76,16.659L261.636,249.648L464.429,0.239h-52.13L261.636,249.644L364.496,0.239h-41.858l-61.008,249.414l-0.009,0.002 l0.005,0.005h0.005l250.13,136.502v-35.087L261.645,249.664l250.115,69.233V290.72l-250.13-41.065l250.13,13.142v-26.282 l-250.115,13.14l250.115-41.06v-28.177l-250.125,69.237L511.76,148.24v-35.092L261.659,249.636L511.76,69.43V16.659z M0.236,107.01v36.666l261.373,105.977L0.236,177.303v29.445l261.385,42.907l-0.011-0.003L0.236,107.01z M0.236,392.303 L261.617,249.66L0.236,355.644V392.303z M48.51,511.763h54.783l158.324-262.085L153.534,511.763h43.989l64.09-262.02 l-20.507,262.02h41.032l-20.511-262.08l64.104,262.08h43.988L261.631,249.669L419.96,511.763h54.778L261.63,249.665l-0.004,0.004 l-0.005-0.005l0.005,0.014l-0.005,0.005v-0.019h0.008l-0.004-0.005h-0.005L48.51,511.763z M0.236,322.014l261.376-72.354 L0.236,292.571V322.014z M261.612,249.66h0.005h0.005v-0.005L261.612,249.66z"></path>
	</g></g>
	<g id="hexatar-hair-rear"></g>
	<g id="hexatar-bodies">
		<g id="hexatar-body">
			<polygon class="col-obj" style="fill: rgb(249, 193, 143);" points="380.515,465 301,451 301,334 211,334 211,451 131.636,465 94.115,512   418.035,512 "></polygon>
			<polygon class="shadow-obj" style="fill: rgb(246, 166, 95);" points="380.541,465 301,451 301,334 256,334 256,512 418.062,512 "></polygon>
			<polygon id="hexatar-neck-control" class="shadow-obj-2x" style="opacity: 0.5; fill: rgb(243, 139, 47);" points="301.054,387.482 255.998,427.693 210.942,384.615  210.942,333.485 301.054,333.485 "></polygon>
		</g>
		<g id="hexatar-clothes"><g class="hexatar-base">
		<polygon class="col-obj" style="fill: rgb(102, 102, 102);" points="382.755,464.994 345.102,456.366 342.573,447.966 329.267,439.566  320.73,419.2 301.055,410.201 300.909,449.043 256.039,503.229 211.014,448.261 211.014,410.201 191.282,419.2 182.739,439.566  169.43,447.966 166.897,456.366 129.243,464.994 92.159,511.994 419.839,511.994"></polygon>
		<path class="shadow-obj-2x" style="opacity: 0.8; fill: rgb(51, 51, 51);" d="M268.224,511.994h11.112l62.881-53.128L268.224,511.994z M315.402,424.396l-8.197,3.291l-6.15-4.693l0.028,26.221L315.402,424.396z M210.943,424.396l-7.975,4.141l-7.165-3.039 l15.168,22.763L210.943,424.396z M232.825,511.994h11.112l-73.992-53.128L232.825,511.994z"></path>
		<path class="shadow-obj" style="opacity: 0.4; fill: rgb(77, 77, 77);" d="M92.159,511.994h50.261l-13.177-47L92.159,511.994z M382.755,464.994l-11.969,47.003h49.054L382.755,464.994z"></path>
	</g></g>
	</g>
	<g id="hexatar-faces">
		<g id="hexatar-ears"><g class="hexatar-base">
		<g class="hexatar-ears-right"> 	<polygon class="col-obj" style="fill: rgb(249, 193, 143);" points="172.062,157.705 172.062,249.447 127.687,249.447 109.255,182.563  127.687,157.705"></polygon> 	<polygon class="shadow-obj" style="fill: rgb(246, 166, 95);" points="172.062,172.337 172.062,234.815 139.829,234.815 127.277,189.266  139.829,172.337"></polygon>
		</g>
		<g class="hexatar-ears-left"> 	<polygon class="shadow-obj" style="fill: rgb(246, 166, 95);" points="339.621,249.447 339.621,157.705 382.976,157.705 401.408,182.563  382.976,249.447"></polygon> 	<polygon class="shadow-obj-2x" style="fill: rgb(243, 139, 47);" points="339.621,234.836 339.621,172.316 369.166,172.316  381.727,189.256 369.166,234.836"></polygon>
		</g>
	</g></g>
		<g id="hexatar-face"><g class="hexatar-base">
		<polygon class="col-obj" style="fill: rgb(249, 193, 143);" points="256.005,7.17 153.605,71.355 153.605,291.893 216.444,386.05  248.348,386.05 296.385,386.05 358.404,291.893 358.404,71.355"></polygon>
		<polygon class="shadow-obj" style="fill: rgb(246, 166, 95);" points="256.006,7.17 256.005,386.05 264.637,386.05 296.385,386.05  358.404,291.893 358.405,71.355"></polygon>
	</g></g>
		<g id="hexatar-mouth"><g class="hexatar-base">
		<polygon class="col-obj" style="fill: rgb(223, 144, 129);" points="223.302,315.222 289.375,315.222 279.556,331.077 233.121,331.077"></polygon>
		<polygon class="shadow-obj" style="fill: rgb(213, 108, 88);" points="277.102,301.457 256.339,310.211 235.575,301.457 219.196,315.495  293.481,315.495"></polygon>
	</g></g>
		<g id="hexatar-beard"></g>
		<g id="hexatar-mustache"></g>
		<g id="hexatar-nose"><g class="hexatar-base">
		<polygon class="shadow-obj" style="fill: rgb(246, 166, 95);" points="273.806,239.281 262.701,172.435 249.3,172.435 238.196,239.281  232.482,239.281 227.055,255.459 233.14,256.886 237.108,254.618 250.825,264.281 260.963,264.281 274.253,255.561  278.008,257.916 284.946,255.459 279.519,239.281"></polygon>
		<polygon class="shadow-obj-2x" style="fill: rgb(243, 139, 47);" points="273.806,239.281 262.701,172.435 256.001,172.435 256.001,264.281  260.963,264.281 274.253,255.561 278.008,257.916 284.946,255.459 279.519,239.281"></polygon>
	</g></g>
		<g id="hexatar-eyeGroup">
			<g id="hexatar-eye"><g class="hexatar-base">
		<g class="hexatar-eye-right">
			<path class="white-obj" style="fill:#FFFFFF;" d="M230.638,199.264c0,0,0.848-6.187-2.68-10.048 c-16.9-3.777-36.643,1.638-36.643,1.638l-2.245,5.356c0,0,7.557,5.14,21.172,5.14c13.615,0,17.649-0.703,17.649-0.703 s1.06,1.681,2.472,0.942C231.773,200.851,230.638,199.264,230.638,199.264z"></path>
			<path class="shadow-obj" style="opacity: 0.3; fill: rgb(0, 0, 0);" d="M221.277,190.522c-0.182-0.786-0.458-1.524-0.8-2.218 c-1.491-0.206-2.914-0.327-4.3-0.409c-3.53-0.069-6.96,0.11-10.089,0.413c-1.528,0.229-2.956,0.516-4.26,0.849 c-0.707,1.834-0.892,3.891-0.417,5.951c0.587,2.541,2.082,4.63,4.057,6.024c1.497,0.138,3.087,0.218,4.772,0.218 c2.59,0,4.828-0.026,6.763-0.067C220.423,198.997,222.257,194.768,221.277,190.522z"></path>
			<circle class="col-obj" style="fill: rgb(17, 17, 17);" cx="211.345" cy="192.815" r="5.276"></circle>
			<circle class="white-obj" style="fill:#FFFFFF;" cx="208.047" cy="196.46" r="2.593"></circle>
			<path class="hair-col" style="fill: rgb(66, 66, 66);" d="M219.621,182.83c3.845,1.376,6.318,3.462,7.913,5.633 c-13.26-4.004-30.059,0.044-34.766,1.34c3.692-4.455,8.366-7.173,8.366-7.173s-11.234,2.559-12.064,13.579 c0.554-1.69,2.263-3.193,3.253-4.626c17.455-5.45,31.344-2.767,36.212-1.559c2.122,3.847,2.103,7.494,2.103,7.494 S233.007,184.629,219.621,182.83z"></path>
		</g>
		<g class="hexatar-eye-left">
			<path class="white-obj" style="fill:#FFFFFF;" d="M286.032,198.786c0,0-0.848-6.187,2.68-10.048 c16.9-3.777,36.643,1.638,36.643,1.638l2.245,5.356c0,0-7.557,5.14-21.172,5.14s-17.649-0.703-17.649-0.703 s-1.06,1.681-2.472,0.942C284.896,200.373,286.032,198.786,286.032,198.786z"></path>
			<path class="shadow-obj" style="opacity: 0.3; fill: rgb(0, 0, 0);" d="M295.392,190.044c0.182-0.786,0.458-1.524,0.8-2.218 c1.491-0.206,2.914-0.327,4.3-0.409c3.53-0.069,6.96,0.11,10.089,0.413c1.528,0.229,2.956,0.516,4.26,0.849 c0.707,1.834,0.892,3.891,0.417,5.951c-0.587,2.541-2.082,4.63-4.057,6.024c-1.497,0.138-3.087,0.218-4.772,0.218 c-2.59,0-4.828-0.026-6.763-0.067C296.246,198.519,294.412,194.29,295.392,190.044z"></path>
			<circle class="col-obj" style="fill: rgb(17, 17, 17);" cx="305.325" cy="192.337" r="5.276"></circle>
			<circle class="white-obj" style="fill:#FFFFFF;" cx="301.175" cy="195.982" r="2.593"></circle>
			<path class="hair-col-2x" style="fill: rgb(40, 40, 40);" d="M297.048,182.352c-3.845,1.376-6.318,3.462-7.913,5.633 c13.26-4.004,30.059,0.044,34.766,1.34c-3.692-4.455-8.366-7.173-8.366-7.173s11.234,2.559,12.064,13.579 c-0.554-1.69-2.184-3.07-3.173-4.503c-17.455-5.45-31.424-2.891-36.291-1.682c-2.122,3.847-2.103,7.494-2.103,7.494 S284.339,183.148,297.048,182.352z"></path>
		</g>
	</g></g>
			<g id="hexatar-eyebrows"><g class="hexatar-base">
		<g class="hexatar-eyebrows-right"> 	<path class="col-obj" style="fill: rgb(66, 66, 66);" d="M177.94,175.889l13.191-2.825l44.548,4.564c3.596,0.426,6.563-2.776,5.866-6.33 l-1.646-8.383l-7.205,3.505l-33.753-6.147C191.657,160.784,184.534,172.754,177.94,175.889L177.94,175.889z"></path>
		</g>
		<g class="hexatar-eyebrows-left"> 	<path class="col-obj" style="fill: rgb(66, 66, 66);" d="M334.84,175.74l-13.188-2.678l-44.552,4.687 c-3.595,0.437-6.573-2.757-5.886-6.312l1.629-8.425l7.21,3.437l33.757-6.215C321.096,160.708,328.229,172.641,334.84,175.74 L334.84,175.74z"></path> 	<path class="shadow-obj" style="opacity: 0.4; fill: rgb(40, 40, 40);" d="M334.84,175.74l-13.188-2.678l-44.552,4.687 c-3.595,0.437-6.573-2.757-5.886-6.312l1.629-8.425l7.21,3.437l33.757-6.215C321.096,160.708,328.229,172.641,334.84,175.74 L334.84,175.74z"></path>
		</g>
	</g></g>	
		</g>
		<g id="hexatar-hair-front"><g class="element-front">
			<polygon class="col-obj" style="fill: rgb(66, 66, 66);" points="256.211,6.901 153.602,70.984 153.602,175.3 172.582,175.3  172.582,80.4 309.162,106.291 339.49,73.22 339.49,175.3 358.403,175.3 358.403,70.984"></polygon>
			<polygon class="col-obj hair-ext" style="fill: rgb(66, 66, 66); display: block;" points="139.876,39.763 154.468,72.834 256.211,6.901"></polygon>
			<polygon class="shadow-obj" style="opacity: 0.4; fill: rgb(40, 40, 40);" points="256.211,6.901 256.211,96.253 309.162,106.291 339.49,73.22  339.49,175.3 358.403,175.3 358.403,70.984"></polygon>
		</g></g>
		<g id="hexatar-hat"></g>
		<g id="hexatar-eyeglasses"></g>
	</g>
	<desc>Avatar generated from Hexatar.com - created with Snap</desc><text transform="matrix(1 0 0 1 0 528)" font-size="12">Avatar generated from Hexatar.com</text></svg>