<svg width="512" height="512" id="hexatar-preview" version="1.1" xmlns="http://www.w3.org/2000/svg" xmlns:xlink="http://www.w3.org/1999/xlink" x="0px" y="0px" viewBox="0 0 512 512" style="enable-background:new 0 0 512 512;" xml:space="preserve">
    <g id="hexatar-background"><g class="hexatar-base">
		<rect class="col-obj" x="-0.003" y="0.002" style="fill: rgb(116, 182, 74);" width="512" height="512"></rect>
		<path class="shadow-obj" style="opacity: 0.6; fill: rgb(93, 146, 59);" d="M42.666,512.001h85.333v-512H42.666V512.001z M383.999,0.001v512 h85.333v-512H383.999z M213.332,512.001h85.333v-512h-85.333V512.001z"></path>
		<path class="shadow-obj" style="opacity: 0.6; fill: rgb(93, 146, 59);" d="M-0.001,298.667h512v-85.333h-512V298.667z M-0.001,469.334h512 v-85.333h-512V469.334z M-0.001,42.667v85.333h512V42.667H-0.001z"></path>
	</g></g>
	<g id="hexatar-hair-rear"></g>
	<g id="hexatar-bodies">
		<g id="hexatar-body">
			<polygon class="col-obj" style="fill: rgb(249, 193, 143);" points="380.515,465 301,451 301,334 211,334 211,451 131.636,465 94.115,512   418.035,512 "></polygon>
			<polygon class="shadow-obj" style="fill: rgb(246, 166, 95);" points="380.541,465 301,451 301,334 256,334 256,512 418.062,512 "></polygon>
			<polygon id="hexatar-neck-control" class="shadow-obj-2x" style="opacity: 0.5; fill: rgb(243, 139, 47);" points="301.054,387.482 255.998,427.693 210.942,384.615  210.942,333.485 301.054,333.485 "></polygon>
		</g>
		<g id="hexatar-clothes"><g class="hexatar-base">
		<path class="white-obj" style="fill:#FFFFFF;" d="M314.881,511.994H196.874v-35.523c0,0,27.74,14.098,59.004,14.098 s59.004-14.098,59.004-14.098V511.994z"></path>
		<path class="static-obj" style="fill:#E6E6E6;" d="M255.878,496.3c26.818,0,51.14-9.92,59.003-13.479v-6.35 c0,0-27.74,14.099-59.003,14.099c-31.264,0-59.004-14.099-59.004-14.099v6.35C204.737,486.38,229.06,496.3,255.878,496.3z"></path>
		<path class="shadow-obj-2x" style="fill: rgb(51, 51, 51);" d="M329.553,417.167h-28.499v14.956h43.008v-0.447 C344.063,423.663,337.567,417.167,329.553,417.167z M167.935,432.123h43.008v-14.956h-28.052 C174.631,417.167,167.935,423.863,167.935,432.123z"></path>
		<path class="col-obj" style="fill: rgb(102, 102, 102);" d="M168,457.399l-38.757,7.595l-37.084,47h131.175v-80H168V457.399z M382.755,464.994L344,457.399v-25.405h-54.605v80h130.444L382.755,464.994z"></path>
		<path class="shadow-obj" style="opacity: 0.4; fill: rgb(77, 77, 77);" d="M92.159,511.994L140.836,512l-11.37-47.006L92.159,511.994z M383.147,464.994L372.426,512l48.028-0.006L383.147,464.994z"></path>
	</g></g>
	</g>
	<g id="hexatar-faces">
		<g id="hexatar-ears"><g class="hexatar-base">
		<g class="hexatar-ears-right"> 	<rect class="col-obj" x="127.687" y="168.76" style="fill: rgb(249, 193, 143);" width="44.374" height="69.632"></rect> 	<rect class="shadow-obj" x="137.718" y="178.338" style="fill: rgb(246, 166, 95);" width="34.343" height="45.801"></rect>
		</g>
		<g class="hexatar-ears-left"> 	<rect class="shadow-obj" x="340.163" y="168.76" style="fill: rgb(246, 166, 95);" width="42.813" height="69.632"></rect> 	<rect class="shadow-obj-2x" x="340.163" y="177.891" style="fill: rgb(243, 139, 47);" width="32.781" height="46.695"></rect>
		</g>
	</g></g>
		<g id="hexatar-face"><g class="hexatar-base">
		<polygon class="col-obj" style="fill: rgb(249, 193, 143);" points="256.005,7.17 153.605,71.355 153.605,291.893 216.444,386.05  248.348,386.05 296.385,386.05 358.404,291.893 358.404,71.355"></polygon>
		<polygon class="shadow-obj" style="fill: rgb(246, 166, 95);" points="256.006,7.17 256.005,386.05 264.637,386.05 296.385,386.05  358.404,291.893 358.405,71.355"></polygon>
	</g></g>
		<g id="hexatar-mouth"><g class="hexatar-base">
		<polygon class="col-obj" style="fill: rgb(223, 144, 129);" points="220.382,311.877 292.295,311.877 267.146,328.877 245.531,328.877"></polygon>
		<polygon class="shadow-obj" style="fill: rgb(213, 108, 88);" points="262.624,296.236 256.339,303.115 250.054,296.236 238.062,296.292  211.196,311.877 301.481,311.877 273.939,296.181"></polygon>
	</g></g>
		<g id="hexatar-beard"></g>
		<g id="hexatar-mustache"></g>
		<g id="hexatar-nose"><g class="hexatar-base">
		<polygon class="shadow-obj" style="fill: rgb(246, 166, 95);" points="273.806,239.281 262.701,172.435 249.3,172.435 238.196,239.281  232.482,239.281 227.055,255.459 233.14,256.886 237.108,254.618 250.825,264.281 260.963,264.281 274.253,255.561  278.008,257.916 284.946,255.459 279.519,239.281"></polygon>
		<polygon class="shadow-obj-2x" style="fill: rgb(243, 139, 47);" points="273.806,239.281 262.701,172.435 256.001,172.435 256.001,264.281  260.963,264.281 274.253,255.561 278.008,257.916 284.946,255.459 279.519,239.281"></polygon>
	</g></g>
		<g id="hexatar-eyeGroup">
			<g id="hexatar-eye"><g class="hexatar-base">
		<g class="hexatar-eye-right">
			<path class="white-obj" style="fill:#FFFFFF;" d="M231.23,202.269c0,0-2.541-10.22-3.353-11.487 c-17.807-4.397-36.478,0.708-37.813,1.264c-1.335,0.556-3.938,4.65-3.938,4.65s9.874,6.452,24.933,6.452 c15.059,0,17.752-1.099,17.752-1.099S229.801,203.423,231.23,202.269z"></path>
			<path class="shadow-obj" style="opacity: 0.3; fill: rgb(0, 0, 0);" d="M222.049,193.384c0.055-1.111-0.085-2.185-0.377-3.198 l-6.566-1.799l-11.987,0.925c-0.379,0.965-0.617,2.003-0.672,3.095c-0.27,5.413,3.899,10.019,9.312,10.289 C217.173,202.966,221.78,198.797,222.049,193.384z"></path>
			<circle class="col-obj" style="fill: rgb(17, 17, 17);" cx="212.56" cy="193.082" r="4.588"></circle>
			<circle class="white-obj" style="fill:#FFFFFF;" cx="208.351" cy="195.851" r="2.854"></circle>
			<path class="hair-col" style="fill: rgb(66, 66, 66);" d="M229.646,190.345c-16.498-3.85-31.796-1.94-39.838,0.65 c-2.876,3.854-3.681,5.701-3.681,5.701l3.898-3.898c0,0,18.672-6.249,37.909-1.302c0.66,2.748,2.724,9.819,2.724,9.819 S229.82,193.151,229.646,190.345z"></path>
			<path class="skin-col" style="fill: rgb(243, 139, 47);" d="M230.65,188.957c0,0-18.546-10.102-41.812-0.561 C213.313,182.318,230.65,188.957,230.65,188.957z"></path>
		</g>
		<g class="hexatar-eye-left">
			<path class="white-obj" style="fill:#FFFFFF;" d="M281.823,202.269c0,0,2.541-10.22,3.353-11.487 c17.807-4.397,36.478,0.708,37.813,1.264c1.335,0.556,3.938,4.65,3.938,4.65s-9.874,6.452-24.933,6.452 s-17.752-1.099-17.752-1.099S283.252,203.423,281.823,202.269z"></path>
			<path class="shadow-obj" style="opacity: 0.3; fill: rgb(0, 0, 0);" d="M291.004,193.384c-0.055-1.111,0.085-2.185,0.376-3.198 l6.566-1.799l11.987,0.925c0.379,0.965,0.617,2.003,0.672,3.095c0.27,5.413-3.899,10.019-9.312,10.289 C295.88,202.966,291.274,198.797,291.004,193.384z"></path>
			<circle class="col-obj" style="fill: rgb(17, 17, 17);" cx="300.493" cy="193.082" r="4.588"></circle>
			<circle class="white-obj" style="fill:#FFFFFF;" cx="296.751" cy="195.851" r="2.854"></circle>
			<path class="hair-col-2x" style="fill: rgb(40, 40, 40);" d="M282.397,201.315c0,0,2.064-7.071,2.724-9.819 c19.236-4.946,37.909,1.302,37.909,1.302l3.898,3.898c0,0-0.805-1.847-3.681-5.701c-8.042-2.59-23.341-4.5-39.838-0.65 C283.233,193.151,282.397,201.315,282.397,201.315z"></path>
			<path class="skin-col-2x" style="fill: rgb(226, 113, 13);" d="M324.215,188.396c-23.266-9.541-41.812,0.561-41.812,0.561 S299.74,182.318,324.215,188.396z"></path>
		</g>
	</g></g>
			<g id="hexatar-eyebrows"><g class="hexatar-base">
		<g class="hexatar-eyebrows-right"> 	<polygon class="col-obj" style="fill: rgb(66, 66, 66);" points="178.292,177.285 200.569,171.534 234.042,178.497 235.716,172.631  232.296,167.976 198.887,166.233"></polygon>
		</g>
		<g class="hexatar-eyebrows-left"> 	<polygon class="col-obj" style="fill: rgb(66, 66, 66);" points="334.47,177.285 312.194,171.534 278.721,178.497 277.046,172.631  280.466,167.976 313.875,166.233"></polygon> 	<polygon class="shadow-obj" style="opacity: 0.4; fill: rgb(40, 40, 40);" points="334.47,177.285 312.194,171.534 278.721,178.497 277.046,172.631  280.466,167.976 313.875,166.233"></polygon>
		</g>
	</g></g>	
		</g>
		<g id="hexatar-hair-front"><g class="element-front">
			<polygon class="col-obj" style="fill: rgb(66, 66, 66);" points="256.211,6.901 153.602,70.984 153.602,175.3 172.582,175.3  172.582,80.4 309.162,106.291 339.49,73.22 339.49,175.3 358.403,175.3 358.403,70.984"></polygon>
			<polygon class="col-obj hair-ext" style="fill: rgb(66, 66, 66); display: block;" points="139.876,39.763 154.468,72.834 256.211,6.901"></polygon>
			<polygon class="shadow-obj" style="opacity: 0.4; fill: rgb(40, 40, 40);" points="256.211,6.901 256.211,96.253 309.162,106.291 339.49,73.22  339.49,175.3 358.403,175.3 358.403,70.984"></polygon>
		</g></g>
		<g id="hexatar-hat"></g>
		<g id="hexatar-eyeglasses"></g>
	</g>
	<desc>Avatar generated from Hexatar.com - created with Snap</desc><text transform="matrix(1 0 0 1 0 528)" font-size="12">Avatar generated from Hexatar.com</text></svg>